{"title":"JIMI HENDRIX-At Last..The Beginning,The Making of Electric Ladyl","uid":7743613,"size":1460360007,"categoryP":"video","categoryS":"music_videos","magnet":"?xt=urn:btih:03a0cf87a75e6cd8c48d352f23d8911ebe025812&amp;dn=JIMI+HENDRIX-At+Last..The+Beginning%2CThe+Making+of+Electric+Ladyl&amp;tr=udp%3A%2F%2Ftracker.openbittorrent.com%3A80&amp;tr=udp%3A%2F%2Fopen.demonii.com%3A1337&amp;tr=udp%3A%2F%2Ftracker.coppersurfer.tk%3A6969&amp;tr=udp%3A%2F%2Fexodus.desync.com%3A6969","seeders":2,"leechers":0,"uploader":"russell887","files":1,"time":1350695091,"description":"At Last The Beginning: The Making Of Electric Ladyland documents the creation of Jimi's groundbreaking 1968 double album. Jimi's closest associates returned to share their remembrances of the album and its lasting influence. Experience bassist Noel Redding, drummer Mitch Mitchell and co-manager Chas Chandler detailed their contributions while engineer Eddie Kramer re-examined the many multi-track tapes created during the sessions. Help from Jimi's `friends and passengers' came by way of new interviews with drummer Buddy Miles, Jefferson Airplane bassist Jack Casady, Traffic's Dave Mason and Steve Winwood, among others. Originally produced in 1997 as part of the Classic Albums television series, this newly edited, expanded edition features almost 40 minutes of additional content not see in the original feature.   \nThis is the 2008 version.   \n\nINFO: \nFormat                                   : MPEG-4\nFormat profile                           : Base Media\nCodec ID                                 : isom\nFile size                                : 1.36 GiB\nDuration                                 : 1h 26mn\nOverall bit rate mode                    : Variable\nOverall bit rate                         : 2 244 Kbps\nWriting application                      : Lavf52.104.0\n\nVideo\nID                                       : 1\nFormat                                   : MPEG-4 Visual\nFormat profile                           : Simple@L3\nFormat settings, BVOP                    : No\nFormat settings, QPel                    : No\nFormat settings, GMC                     : No warppoints\nFormat settings, Matrix                  : Default (H.263)\nCodec ID                                 : 20\nDuration                                 : 1h 26mn\nBit rate                                 : 2 071 Kbps\nWidth                                    : 720 pixels\nHeight                                   : 480 pixels\nDisplay aspect ratio                     : 4:3\nOriginal display aspect ratio            : 4:3\nFrame rate mode                          : Constant\nFrame rate                               : 29.970 fps\nStandard                                 : NTSC\nColor space                              : YUV\nChroma subsampling                       : 4:2:0\nBit depth                                : 8 bits\nScan type                                : Progressive\nCompression mode                         : Lossy\nBits/(Pixel*Frame)                       : 0.200\nStream size                              : 1.25 GiB (92%)\nWriting library                          : XviD 1.2.1 (UTC 2008-12-04)\n\nAudio\nID                                       : 2\nFormat                                   : AAC\nFormat/Info                              : Advanced Audio Codec\nFormat profile                           : LC\nCodec ID                                 : 40\nDuration                                 : 1h 26mn\nBit rate mode                            : Variable\nBit rate                                 : 169 Kbps\nChannel(s)                               : 6 channels\nChannel positions                        : Front: L C R, Side: L R, LFE\nSampling rate                            : 48.0 KHz\nCompression mode                         : Lossy\nStream size                              : 105 MiB (8%)\n\nSIZE: 1.36GB\n","torrent":{"xt":"urn:btih:03a0cf87a75e6cd8c48d352f23d8911ebe025812","amp;dn":"JIMI+HENDRIX-At+Last..The+Beginning%2CThe+Making+of+Electric+Ladyl","amp;tr":["udp%3A%2F%2Ftracker.openbittorrent.com%3A80","udp%3A%2F%2Fopen.demonii.com%3A1337","udp%3A%2F%2Ftracker.coppersurfer.tk%3A6969","udp%3A%2F%2Fexodus.desync.com%3A6969"],"infoHash":"03a0cf87a75e6cd8c48d352f23d8911ebe025812","infoHashBuffer":{"type":"Buffer","data":[3,160,207,135,167,94,108,216,196,141,53,47,35,216,145,30,190,2,88,18]},"announce":[],"urlList":[]}}